# xmcd
#
# Track frame offsets: 
#        150
#        24589
#        45469
#        73871
#        93790
#        110997
#
# Disc length: 1692 seconds
#
# Revision: 0
# Processed by: cddbd v1.5.1PL0 Copyright (c) Steve Scherf et al.
# Submitted via: ExactAudioCopy v0.95a5
#
DISCID=4c069a06
DTITLE=Hot Tuna - 1995-05-19 Aladdin Theatre Las Vegas, NV
DYEAR=1995
DGENRE=Blues
TTITLE0=Ode For Billy Dean
TTITLE1=It's Just My Way
TTITLE2=Junkies On Angel Dust
TTITLE3=Baby What You Want Me To Do
TTITLE4=Stop Breaking Down
TTITLE5=From Four Till Late
EXTD=
EXTT0=
EXTT1=
EXTT2=
EXTT3=
EXTT4=
EXTT5=
PLAYORDER=
